<?xml version="1.0" encoding="UTF-8"?>
<!DOCTYPE svg PUBLIC "-//W3C//DTD SVG 1.1//EN" "http://www.w3.org/Graphics/SVG/1.1/DTD/svg11.dtd">
<svg xmlns="http://www.w3.org/2000/svg" version="1.1" width="889px" height="995px" style="shape-rendering:geometricPrecision; text-rendering:geometricPrecision; image-rendering:optimizeQuality; fill-rule:evenodd; clip-rule:evenodd" xmlns:xlink="http://www.w3.org/1999/xlink">
<g><path style="opacity:0.987" fill="#fefefe" d="M 272.5,-0.5 C 280.167,-0.5 287.833,-0.5 295.5,-0.5C 306.284,1.36459 316.95,4.19792 327.5,8C 342.766,14.6317 357.432,22.2984 371.5,31C 453.301,83.4578 535.634,135.124 618.5,186C 686.802,230.36 731.302,292.194 752,371.5C 759.167,400.834 764.5,430.501 768,460.5C 769.829,469.497 774.996,472.33 783.5,469C 799.779,461.527 815.779,453.527 831.5,445C 863.031,433.427 881.698,444.094 887.5,477C 886.146,488.043 881.146,497.043 872.5,504C 867.167,507.333 861.833,510.667 856.5,514C 734.5,573.333 612.5,632.667 490.5,692C 481.186,696.327 471.519,699.66 461.5,702C 451.013,704.045 441.68,701.712 433.5,695C 429.286,690.454 425.453,685.621 422,680.5C 398.866,635.232 376.533,589.566 355,543.5C 344.823,512.66 355.823,494.66 388,489.5C 397.743,490.077 405.743,494.077 412,501.5C 414.333,504.833 416.667,508.167 419,511.5C 434.527,541.221 449.527,571.221 464,601.5C 469.736,610.952 477.902,614.118 488.5,611C 504.452,605.524 519.452,598.19 533.5,589C 539.155,583.674 542.655,577.174 544,569.5C 548.859,508.13 537.193,450.13 509,395.5C 486.978,357.144 457.145,326.311 419.5,303C 364.833,270.333 310.167,237.667 255.5,205C 248.757,200.525 241.424,198.525 233.5,199C 229.918,202.737 228.085,207.237 228,212.5C 226.903,289.165 226.57,365.831 227,442.5C 227.384,478.305 229.717,513.972 234,549.5C 243.726,595.491 268.559,630.657 308.5,655C 381.003,699.422 454.003,743.088 527.5,786C 533.319,788.63 538.485,787.796 543,783.5C 546.18,774.449 549.513,765.449 553,756.5C 563.445,743.594 576.611,740.094 592.5,746C 603.485,750.995 609.985,759.495 612,771.5C 613.167,801.827 613.5,832.16 613,862.5C 613.017,884.706 609.683,906.372 603,927.5C 587.601,966.078 559.434,988.411 518.5,994.5C 509.833,994.5 501.167,994.5 492.5,994.5C 478.12,992.569 464.12,988.735 450.5,983C 436.356,976.43 422.689,969.097 409.5,961C 321.159,906.156 231.826,852.823 141.5,801C 59.2643,749.772 13.0976,675.606 3,578.5C 1.15165,548.37 -0.0150119,518.37 -0.5,488.5C -0.5,423.5 -0.5,358.5 -0.5,293.5C 0.0540453,253.312 0.887379,212.979 2,172.5C 4.76285,138.666 17.0962,109 39,83.5C 74.2805,51.7606 113.781,45.5939 157.5,65C 282.66,129.377 402.327,202.044 516.5,283C 577.985,336.142 611.152,403.642 616,485.5C 616.577,502.2 617.577,518.867 619,535.5C 619.735,540.902 622.735,543.902 628,544.5C 646.387,538.724 663.887,530.891 680.5,521C 691.094,516.075 697.594,507.908 700,496.5C 699.825,368.268 645.325,271.101 536.5,205C 449.364,149.874 361.697,95.541 273.5,42C 257.833,34.5 242.167,27 226.5,19.5C 225.289,18.7261 225.289,17.8928 226.5,17C 240.775,8.07978 256.108,2.24645 272.5,-0.5 Z M 106.5,129.5 C 119.326,128.873 131.326,131.706 142.5,138C 150.75,143.657 155.584,151.49 157,161.5C 157.427,256.5 157.927,351.5 158.5,446.5C 158.462,476.173 158.129,505.84 157.5,535.5C 157.285,590.889 177.619,637.055 218.5,674C 258.939,705.061 301.272,733.394 345.5,759C 407.329,793.747 468.996,828.747 530.5,864C 538.068,871.32 540.568,880.154 538,890.5C 533.7,909.802 521.7,920.135 502,921.5C 496.023,921.032 490.19,919.865 484.5,918C 411.009,876.424 338.009,834.091 265.5,791C 224.463,765.486 184.463,738.486 145.5,710C 108.708,679.274 86.2081,640.107 78,592.5C 76.1749,582.566 74.8416,572.566 74,562.5C 72.3751,438.176 72.0418,313.843 73,189.5C 74.0346,173.694 78.0346,158.694 85,144.5C 90.4383,136.875 97.605,131.875 106.5,129.5 Z"/></g>
<g><path style="opacity:0.981" fill="#fefefe" d="M 722.5,692.5 C 749.727,688.574 764.227,700.241 766,727.5C 766.882,758.518 766.548,789.518 765,820.5C 760.218,862.899 739.718,895.066 703.5,917C 696.675,921.146 690.008,921.146 683.5,917C 681.951,914.902 680.951,912.568 680.5,910C 682.627,902.575 685.461,895.408 689,888.5C 692.316,871.972 694.649,855.305 696,838.5C 697.024,798.835 698.024,759.169 699,719.5C 701.049,705.295 708.882,696.295 722.5,692.5 Z"/></g>
</svg>
